<svg width="182" height="178" viewBox="0 0 182 178" fill="none" xmlns="http://www.w3.org/2000/svg">
<path d="M164.908 95.9333C164.908 135.309 69.7739 170.942 109.174 170.942C148.574 170.942 182 135.309 182 95.9333C182 56.5579 150.06 30.5791 110.66 30.5791C101.743 23.8951 164.908 56.5579 164.908 95.9333Z" fill="#CC2A25"/>
<path d="M31.8889 95.0606C31.8889 134.436 62.3426 170.069 101.743 170.069C141.143 170.069 174.569 134.436 174.569 95.0606C174.569 55.6852 142.629 29.7064 103.229 29.7064C63.8289 29.7064 31.8889 55.6852 31.8889 95.0606Z" fill="#FF362E"/>
<path d="M92.8251 90.6046C92.8251 97.1672 98.1484 102.487 104.715 102.487C111.282 102.487 116.605 97.1672 116.605 90.6046C116.605 84.042 111.282 78.722 104.715 78.722C98.1484 78.722 92.8251 84.042 92.8251 90.6046Z" fill="black"/>
<path d="M97.2837 86.8913C97.2837 88.9421 98.9473 90.6046 100.999 90.6046C103.051 90.6046 104.715 88.9421 104.715 86.8913C104.715 84.8405 103.051 83.178 100.999 83.178C98.9473 83.178 97.2837 84.8405 97.2837 86.8913Z" fill="white"/>
<path d="M43.7789 90.6046C43.7789 97.1672 49.1022 102.487 55.6689 102.487C62.2355 102.487 67.5589 97.1672 67.5589 90.6046C67.5589 84.042 62.2355 78.722 55.6689 78.722C49.1022 78.722 43.7789 84.042 43.7789 90.6046Z" fill="black"/>
<path d="M48.2377 86.8913C48.2377 88.9421 49.9012 90.6046 51.9533 90.6046C54.0054 90.6046 55.6689 88.9421 55.6689 86.8913C55.6689 84.8405 54.0054 83.178 51.9533 83.178C49.9012 83.178 48.2377 84.8405 48.2377 86.8913Z" fill="white"/>
<path d="M69.0975 104.398C67.2692 103.567 65.057 104.381 64.7468 106.364C64.592 107.354 64.5485 108.361 64.6195 109.368C64.7762 111.59 65.4859 113.738 66.6842 115.616C67.8826 117.494 69.5315 119.043 71.4812 120.122C73.4309 121.202 75.6195 121.777 77.8483 121.796C80.077 121.815 82.2752 121.277 84.243 120.231C86.2109 119.185 87.8861 117.665 89.1164 115.807C90.3466 113.95 91.093 111.815 91.2877 109.596C91.3759 108.591 91.3496 107.582 91.2118 106.59C90.9356 104.602 88.7376 103.75 86.8953 104.55L86.3428 104.79C84.8056 105.457 84.1879 107.293 84.0415 108.961C83.9527 109.973 83.6122 110.947 83.051 111.795C82.4897 112.642 81.7255 113.336 80.8277 113.813C79.93 114.29 78.9272 114.535 77.9104 114.527C76.8937 114.518 75.8952 114.256 75.0058 113.763C74.1163 113.271 73.3641 112.564 72.8174 111.707C72.2707 110.851 71.9469 109.871 71.8754 108.857C71.7576 107.186 71.1714 105.341 69.6459 104.647L69.0975 104.398Z" fill="black"/>
<path d="M83.0378 41.7715C82.9741 40.0477 81.5221 38.6911 79.8053 38.8696C70.1285 39.8757 60.9764 43.8746 53.6476 50.3476C46.3189 56.8205 41.2227 65.406 39.0341 74.8797C38.6458 76.5604 39.8144 78.1673 41.5184 78.4424C43.2224 78.7175 44.8148 77.5558 45.2204 75.8791C47.1672 67.8311 51.5415 60.5444 57.7869 55.0283C64.0324 49.5122 71.806 46.0695 80.0373 45.128C81.7522 44.9319 83.1015 43.4953 83.0378 41.7715Z" fill="white"/>
<path d="M107.688 29.8054C106.944 18.4179 104.566 -3.02022 100.999 2.32693C97.4324 7.67409 94.0636 22.8739 92.8251 29.8054C80.9351 24.6068 57.0065 16.586 56.412 26.0921C55.8175 35.5981 80.4396 35.9942 92.8251 35.004C83.1644 40.4502 65.3294 52.2337 71.2744 55.7985C78.7057 60.2545 95.0544 49.1146 98.0269 40.9453C100.999 47.8768 109.62 61.2942 120.321 59.5118C131.239 57.6933 117.402 42.0211 110.736 37.5336C120.74 39.7933 137.473 40.0735 146.33 27.5774C131.467 18.0713 114.376 25.1019 107.688 29.8054Z" fill="#047A4F"/>
<path d="M104.715 28.3201C103.972 16.9326 101.594 -4.50554 98.0269 0.841613C94.4599 6.18877 91.0911 21.3886 89.8525 28.3201C77.9626 23.1214 54.034 15.1007 53.4395 24.6068C52.845 34.1128 77.4671 34.5089 89.8525 33.5187C80.1919 38.9649 62.3569 50.7484 68.3019 54.3132C75.7332 58.7691 92.0819 47.6292 95.0544 39.46C98.0269 46.3915 106.647 59.8089 117.348 58.0265C128.266 56.208 114.43 40.5358 107.763 36.0483C117.768 38.308 134.501 38.5882 143.357 26.0921C128.495 16.586 111.403 23.6165 104.715 28.3201Z" fill="#02B25F"/>
<path d="M31.7735 99.0582L3.55011 109.502C0.741161 110.541 -0.698512 113.636 0.334509 116.414L21.9367 174.51C22.9697 177.288 26.0842 178.697 28.8932 177.658L57.1166 167.214C59.9255 166.175 61.3652 163.08 60.3322 160.302L38.73 102.206C37.697 99.4282 34.5825 98.0187 31.7735 99.0582Z" fill="black"/>
<path d="M34.2222 108.464L7.77778 118.148L25.6667 167.214L52.8889 158.568L34.2222 108.464Z" fill="#FEFEFE"/>
<path d="M20.8435 106.269L15.5907 108.213C15.0381 108.417 14.6519 108.749 14.7281 108.954C14.8043 109.159 15.3141 109.159 15.8666 108.955L21.1195 107.011C21.672 106.806 22.0582 106.475 21.982 106.27C21.9058 106.065 21.3961 106.064 20.8435 106.269Z" fill="#5B5B5B"/>
<path fill-rule="evenodd" clip-rule="evenodd" d="M14.7835 108.464L21.412 106.012C21.5787 105.95 21.7498 106.027 21.8111 106.192C21.8725 106.357 21.7934 106.527 21.6266 106.589L14.9981 109.042C14.8313 109.103 14.6603 109.026 14.5989 108.861C14.5376 108.696 14.6167 108.526 14.7835 108.464Z" fill="black"/>
</svg>
