<svg width="324" height="192" viewBox="0 0 324 192" fill="none" xmlns="http://www.w3.org/2000/svg">
<mask id="mask0_59_1029" style="mask-type:luminance" maskUnits="userSpaceOnUse" x="171" y="30" width="110" height="148">
<path d="M171.339 30.3649H280.161V177.528H171.339V30.3649Z" fill="white"/>
</mask>
<g mask="url(#mask0_59_1029)">
<g opacity="0.199997">
<path d="M265.938 71.9149C261.38 72.1674 257.32 74.7038 255.134 78.5569C254.762 78.6933 254.391 78.8334 254.023 78.9806C251.503 80.0167 249.386 80.9379 247.472 82.0142C249.781 78.4077 252.279 74.9199 254.956 71.5651C256.815 69.0036 258.789 66.5271 260.869 64.1401C265.19 64.5525 269.511 63.1726 272.766 60.2997C279.016 55.2499 280.675 48.2318 280.033 47.7139C279.392 47.1956 272.087 48.036 266.23 51.6614C262.143 54.0298 259.675 58.3403 259.691 62.9495C256.941 65.7415 254.411 68.7635 252.022 71.7369C251.663 72.1854 251.308 72.6366 250.955 73.0895C250.576 72.2449 250.255 71.3774 249.992 70.4931C251.287 69.2746 253.689 66.9456 253.15 62.2887C252.582 57.3207 248.818 53.0857 248.276 53.1912C247.734 53.2969 245.58 57.4773 245.179 62.2183C244.807 65.414 246.168 68.5427 248.718 70.4929C248.984 71.8745 249.352 73.2359 249.819 74.5661C243.36 83.095 237.958 92.3552 233.734 102.151C231.63 106.987 229.914 111.976 228.601 117.072C228.601 117.055 228.6 117.038 228.599 117.021C228.581 116.293 228.557 115.556 228.541 114.811C228.504 113.321 228.479 111.799 228.459 110.251C228.443 108.704 228.434 107.13 228.434 105.538C228.434 103.945 228.444 102.334 228.452 100.709C228.474 97.4598 228.485 94.159 228.481 90.8579C228.478 88.9251 228.48 86.9926 228.485 85.0703C228.83 84.9631 229.113 84.7037 229.24 84.3569C229.583 83.3652 230.009 82.4045 230.511 81.4834C232.117 81.5031 235.139 81.4952 237.77 78.1876C240.582 74.664 240.882 69.6386 240.469 69.3721C240.055 69.1056 236.008 70.4493 232.723 73.231C230.444 75.0438 229.314 77.8815 229.697 80.6988C229.268 81.3286 228.867 81.9765 228.495 82.6408C228.499 82.0949 228.502 81.5499 228.505 81.0066C228.525 77.7575 228.541 74.5598 228.534 71.4649C228.523 68.37 228.491 65.3778 228.44 62.5401C228.412 61.1212 228.383 59.7409 228.346 58.4056C228.33 57.7381 228.307 57.0817 228.288 56.4375C228.286 56.3854 228.285 56.3339 228.283 56.282C228.606 56.1855 228.871 55.9451 228.989 55.6221C229.305 54.7091 229.697 53.8247 230.159 52.9768C231.638 52.9948 234.42 52.9875 236.842 49.9426C239.43 46.699 239.707 42.0726 239.326 41.8273C238.946 41.582 235.22 42.819 232.195 45.3797C230.097 47.0486 229.058 49.6609 229.41 52.2544C228.98 52.8848 228.582 53.535 228.215 54.2028C228.131 51.8572 228.053 49.7012 227.983 47.7807C227.948 46.7742 227.915 45.8324 227.885 44.9614C227.876 44.6883 227.867 44.4228 227.858 44.1638C229.037 43.256 230.892 41.5818 230.882 38.0629C230.877 34.0414 228.25 30.328 227.807 30.3649C227.364 30.4022 225.265 33.5567 224.516 37.3123C223.876 40.0701 224.898 42.9452 227.147 44.7126C227.158 44.7029 227.17 44.6931 227.181 44.6831C227.177 44.7713 227.172 44.8595 227.168 44.9492C227.122 45.8188 227.072 46.7592 227.02 47.7641C226.911 49.7738 226.788 52.0412 226.655 54.5148C226.621 55.1333 226.593 55.7646 226.561 56.4079C226.531 57.0514 226.496 57.7069 226.468 58.3735C226.407 59.7072 226.353 61.086 226.301 62.5035C226.255 63.7823 226.212 65.0929 226.173 66.4301C225.835 66.0184 225.485 65.6164 225.124 65.224C225.085 62.1337 223.416 59.2552 220.673 57.6567C216.693 55.1714 212.124 54.351 211.721 54.7015C211.319 55.0521 212.447 60.4124 216.037 63.7692C219.397 66.9215 222.65 66.463 224.374 66.194C225.021 67.0528 225.6 67.9601 226.106 68.9084C226.085 69.7381 226.066 70.5762 226.048 71.4224C225.986 74.5162 225.945 77.7134 225.907 80.9622C225.871 84.211 225.819 87.5113 225.756 90.8112C225.717 92.8492 225.684 94.8872 225.656 96.9133C225.298 96.4658 224.924 96.0304 224.535 95.6081C224.501 92.8853 223.03 90.3494 220.614 88.9411C217.107 86.7514 213.081 86.0287 212.727 86.3374C212.372 86.6463 213.366 91.3689 216.529 94.3264C219.489 97.1036 222.355 96.6998 223.875 96.4627C224.481 97.2674 225.02 98.1201 225.485 99.0133C225.525 99.087 225.572 99.1545 225.626 99.2158C225.62 99.6983 225.615 100.18 225.609 100.66C225.588 102.285 225.569 103.896 225.542 105.488C225.513 107.08 225.477 108.653 225.432 110.199C225.385 111.746 225.332 113.267 225.269 114.755C225.24 115.499 225.204 116.235 225.172 116.962C225.143 117.69 225.084 118.408 224.993 119.115C224.988 119.152 224.983 119.188 224.978 119.224C224.678 118.315 224.367 117.414 224.052 116.524C222.341 111.711 220.226 107.045 217.73 102.575C215.112 97.8717 212.176 93.3528 208.946 89.0464C209.417 87.1879 209.737 85.2965 209.903 83.3905C212.922 80.5946 214.261 76.4256 213.363 72.3904C212.245 66.3991 208.971 61.388 208.231 61.2908C207.493 61.1942 203.284 67.0802 203.206 73.4877C203.113 79.4896 206.509 82.1395 208.296 83.5349C208.079 84.7179 207.78 85.8856 207.4 87.0296C204.664 83.5391 201.732 80.1956 198.614 77.0163C196.214 74.574 193.685 72.0922 190.982 69.8368C190.604 65.6883 187.997 62.0213 184.103 60.2606C178.575 57.5312 171.929 57.4243 171.414 57.9389C170.897 58.4537 173.016 64.5949 179.05 68.5464C182.203 70.8252 186.17 71.689 189.982 70.9629C192.069 72.9258 194.069 74.9789 195.972 77.1193C198.652 79.8662 201.186 82.7453 203.565 85.7446C201.772 84.9629 199.813 84.3351 197.494 83.6456C197.157 83.5477 196.817 83.4566 196.477 83.3692C194.17 80.1014 190.298 78.1801 186.188 78.3523C179.991 78.3947 174.034 81.2807 173.81 81.9657C173.585 82.6509 178.336 87.1733 185.539 87.9968C189.549 88.6291 193.628 87.5167 196.727 84.9712C196.855 85.0154 196.982 85.0602 197.109 85.1061C200.227 86.1328 203.234 87.4547 206.089 89.0523C206.307 89.3497 206.524 89.6479 206.74 89.9475C210.176 94.7759 213.225 99.8524 215.864 105.131C214.4 104.135 212.767 103.212 210.863 102.185C210.555 102.02 210.245 101.86 209.932 101.704C208.368 98.0359 204.993 95.3604 200.939 94.676C194.87 93.4617 188.427 95.0592 188.067 95.6838C187.708 96.3086 191.381 101.704 198.254 103.976C202.059 105.434 206.314 105.173 209.895 103.285C210.012 103.355 210.128 103.426 210.244 103.498C212.822 104.985 215.258 106.693 217.525 108.602C218.467 110.657 219.348 112.74 220.166 114.849C221.823 119.018 222.953 123.309 224.049 127.624C224.004 129.894 223.998 131.983 224.016 133.85C224.022 134.374 224.029 134.879 224.038 135.366H202.397C200.986 135.366 199.842 136.49 199.842 137.876C199.842 139.262 200.986 140.385 202.397 140.385H203.299V161.854C203.299 165.863 204.854 169.877 207.968 172.939C211.089 176.001 215.176 177.528 219.255 177.528H230.526H234.284C238.363 177.528 242.45 176.001 245.571 172.939C248.685 169.877 250.24 165.863 250.24 161.854V140.385H251.142C252.553 140.385 253.698 139.262 253.698 137.876C253.698 136.49 252.553 135.366 251.142 135.366H229.409C229.425 134.908 229.441 134.433 229.454 133.943C229.484 132.847 229.507 131.673 229.521 130.431C230.247 125.581 231.02 120.753 232.373 116.007C233.028 113.63 233.754 111.274 234.548 108.942C236.866 106.542 239.398 104.347 242.114 102.386C242.242 102.29 242.37 102.194 242.499 102.1C246.674 103.803 251.414 103.632 255.462 101.607C262.814 98.3353 266.287 91.9887 265.813 91.3209C265.34 90.6533 258.023 89.5949 251.446 91.5978C247.04 92.7941 243.606 96.1148 242.281 100.338C241.951 100.546 241.622 100.758 241.299 100.976C239.272 102.344 237.547 103.558 236.023 104.839C238.365 98.6706 241.192 92.6844 244.482 86.9354C244.702 86.5544 244.923 86.1749 245.147 85.7963C248.092 83.7462 251.232 81.979 254.525 80.5219C254.661 80.4583 254.798 80.3957 254.934 80.3336C258.663 82.8626 263.341 83.67 267.74 82.5195C275.629 80.8325 280.384 75.3246 280.055 74.583C279.725 73.8422 272.811 71.2947 265.938 71.9149Z" fill="#299147"/>
</g>
</g>
<path d="M259.863 62.375C259.441 57.2902 261.964 52.412 266.358 49.8192C272.214 46.1277 279.519 45.2719 280.16 45.7998C280.802 46.327 279.143 53.4732 272.893 58.6153C269.354 61.7966 264.553 63.1817 259.863 62.375Z" fill="#90DEA9"/>
<path d="M254.564 78.6584C256.49 73.9283 260.966 70.7301 266.065 70.4424C272.938 69.811 279.852 72.4049 280.182 73.1593C280.511 73.9144 275.756 79.5228 267.867 81.2407C263.271 82.4649 258.368 81.5135 254.564 78.6584Z" fill="#90DEA9"/>
<path d="M226.408 136.187C225.697 130.015 226.98 123.677 228.421 117.67C229.769 112.047 231.589 106.548 233.861 101.231C238.557 90.1425 244.706 79.7276 252.149 70.2613C256.874 64.273 262.148 58.0896 268.592 53.9127C268.738 53.8246 269.023 54.1041 268.9 54.2214C263.791 59.049 259.163 64.3623 255.083 70.0862C251.206 75.0339 247.704 80.2653 244.609 85.7374C239.365 95.0666 235.298 105.009 232.5 115.34C230.588 122.17 229.834 129.168 228.733 136.159C228.74 136.802 228.226 137.328 227.584 137.336C226.942 137.343 226.415 136.829 226.408 136.187Z" fill="#299147"/>
<path d="M229.97 80.1883C229.239 77.0662 230.358 73.8008 232.85 71.7826C236.135 68.9502 240.182 67.5819 240.596 67.8533C241.009 68.1246 240.709 73.2418 237.897 76.8298C234.835 80.7499 231.242 80.1181 229.97 80.1883Z" fill="#90DEA9"/>
<path d="M227.812 82.9684C228.639 81.1831 229.663 79.496 230.866 77.9386C231.963 76.3974 233.34 75.0768 234.926 74.0451C235.13 73.8856 235.009 74.288 234.892 74.4111C233.772 75.6609 232.725 76.9749 231.758 78.3462C230.746 79.8174 229.941 81.4207 229.367 83.1118C229.199 83.5802 228.755 83.8926 228.258 83.8932C227.916 83.8373 227.684 83.5147 227.74 83.173C227.752 83.1011 227.776 83.0319 227.812 82.9684Z" fill="#299147"/>
<path d="M229.672 51.161C228.999 48.287 230.028 45.2809 232.322 43.423C235.347 40.8156 239.073 39.5559 239.453 39.8057C239.834 40.0555 239.557 44.7662 236.969 48.0692C234.15 51.678 230.843 51.0965 229.672 51.161Z" fill="#90DEA9"/>
<path d="M227.684 53.7204C228.446 52.077 229.389 50.5237 230.496 49.0901C231.506 47.6712 232.774 46.4554 234.233 45.5059C234.421 45.359 234.31 45.7293 234.203 45.8427C233.172 46.9931 232.208 48.2028 231.317 49.4652C230.385 50.8196 229.645 52.2956 229.116 53.8523C228.962 54.2835 228.553 54.5712 228.095 54.5717C227.781 54.5203 227.567 54.2231 227.619 53.9087C227.63 53.8425 227.652 53.7789 227.684 53.7204Z" fill="#299147"/>
<path d="M227.274 42.7437C225.025 40.944 224.003 38.0165 224.643 35.2082C225.392 31.3841 227.492 28.172 227.934 28.134C228.377 28.0964 231.004 31.8777 231.009 35.9725C231.022 40.4406 228.133 41.9882 227.274 42.7437Z" fill="#90DEA9"/>
<path d="M216.164 62.1482C212.574 58.7301 211.446 53.2719 211.848 52.9151C212.251 52.558 216.82 53.3934 220.8 55.9241C223.798 57.7035 225.516 61.0409 225.22 64.515C223.841 64.6394 220.074 65.8841 216.164 62.1482Z" fill="#90DEA9"/>
<path d="M228.089 67.3754C228.203 67.7341 228.004 68.1177 227.645 68.2315C227.11 68.3092 226.583 68.0429 226.329 67.5652C225.445 65.8363 224.328 64.2378 223.007 62.814C221.751 61.4908 220.418 60.2418 219.016 59.0733C218.871 58.9592 218.678 58.5454 218.923 58.6849C220.791 59.5454 222.48 60.7495 223.902 62.2354C225.442 63.7215 226.81 65.3758 227.98 67.1665C228.028 67.2292 228.065 67.2998 228.089 67.3754Z" fill="#299147"/>
<path d="M216.656 93.2631C213.493 90.2516 212.499 85.4429 212.854 85.1283C213.208 84.8138 217.234 85.5499 220.741 87.7795C223.382 89.3472 224.895 92.2875 224.635 95.3485C223.419 95.458 220.101 96.5545 216.656 93.2631Z" fill="#90DEA9"/>
<path d="M227.162 97.8684C227.262 98.1845 227.087 98.5225 226.771 98.6227C226.299 98.6914 225.836 98.4566 225.612 98.0356C224.833 96.5124 223.848 95.1042 222.685 93.8497C221.578 92.6841 220.403 91.5834 219.169 90.554C219.041 90.4535 218.871 90.0888 219.087 90.212C220.732 90.9699 222.221 92.0309 223.474 93.3399C224.83 94.6493 226.035 96.1067 227.066 97.6845C227.108 97.7397 227.141 97.8018 227.162 97.8684Z" fill="#299147"/>
<path d="M249.589 69.5192C246.564 67.6038 244.9 64.1266 245.306 60.569C245.707 55.7414 247.861 51.4847 248.403 51.3772C248.945 51.2697 252.709 55.582 253.277 60.6407C253.904 66.1599 250.548 68.4679 249.589 69.5192Z" fill="#90DEA9"/>
<path d="M250.045 73.4233C249.306 71.3538 248.802 69.2078 248.542 67.0257C248.21 64.9396 248.274 62.8099 248.73 60.7475C248.768 60.4603 248.987 60.8756 248.99 61.0647C249.076 62.9369 249.27 64.803 249.572 66.6527C249.917 68.6169 250.53 70.5238 251.396 72.3203C251.628 72.8249 251.52 73.421 251.124 73.8108C250.808 74.0337 250.371 73.958 250.148 73.642C250.101 73.5755 250.066 73.5015 250.045 73.4233Z" fill="#299147"/>
<path d="M242.868 84.1915C246.084 81.1967 249.404 79.6246 254.15 77.6371C255.998 76.8853 257.9 76.2714 259.84 75.802C262.14 75.2232 264.514 74.9909 266.881 75.1123C266.974 75.1245 267.488 75.3939 267.31 75.424C265.035 75.8233 262.783 76.3489 260.567 76.999C258.534 77.5602 256.555 78.2989 254.652 79.2066C250.821 80.9326 247.196 83.085 243.846 85.623C243.13 86.1718 242.317 84.7087 242.868 84.1915Z" fill="#299147"/>
<path d="M242.033 100.919C242.948 95.8989 246.655 91.8444 251.573 90.4847C258.15 88.4454 265.467 89.523 265.94 90.2029C266.414 90.8829 262.941 97.3452 255.589 100.677C251.348 102.837 246.348 102.927 242.033 100.919Z" fill="#90DEA9"/>
<path d="M231.76 108.774C234.263 105.175 237.188 102.947 241.426 100.034C243.069 98.908 244.798 97.9124 246.597 97.0567C248.728 96.0134 251.003 95.2931 253.347 94.9193C253.426 94.9298 253.998 95.0724 253.829 95.1305C251.689 95.9965 249.597 96.9776 247.563 98.0698C245.692 99.0458 243.912 100.183 242.242 101.47C238.852 103.962 235.751 106.822 232.993 109.998C232.423 110.66 231.315 109.4 231.76 108.774Z" fill="#299147"/>
<path d="M191.155 69.2295C191.094 64.64 188.4 60.4951 184.23 58.5755C178.702 55.7964 172.056 55.6874 171.541 56.2116C171.025 56.7356 173.144 62.989 179.177 67.0126C182.619 69.5463 187.034 70.3634 191.155 69.2295Z" fill="#90DEA9"/>
<path d="M197.34 83.3134C195.189 79.2589 190.9 76.8019 186.315 76.9974C180.119 77.0406 174.162 79.9792 173.937 80.6768C173.713 81.3745 178.463 85.9795 185.666 86.8181C189.889 87.4959 194.189 86.2052 197.34 83.3134Z" fill="#90DEA9"/>
<path d="M209.15 82.8808C212.782 80.0673 214.471 75.4154 213.49 70.9268C212.373 64.826 209.098 59.7234 208.359 59.6245C207.62 59.5261 203.411 65.5196 203.334 72.0439C203.224 79.1589 207.846 81.6479 209.15 82.8808Z" fill="#90DEA9"/>
<path d="M227.616 132.213C227.697 126.634 225.989 121.078 224.179 115.866C222.468 110.965 220.354 106.214 217.857 101.662C212.67 92.1758 206.241 83.4242 198.741 75.637C193.979 70.7012 188.703 65.6048 182.578 62.4735C182.454 62.408 182.195 62.6398 182.34 62.7814C187.337 66.6441 191.945 70.9847 196.099 75.7419C200.009 79.8223 203.608 84.1884 206.867 88.8042C212.366 96.6735 216.876 105.189 220.293 114.161C222.612 120.099 223.897 126.283 225.505 132.435C225.726 133.001 226.364 133.281 226.93 133.061C227.292 132.919 227.553 132.597 227.616 132.213Z" fill="#299147"/>
<path d="M209.069 87.9071C209.749 85.1805 210.115 82.3841 210.159 79.5741C210.316 76.8843 209.959 74.1898 209.106 71.6336C208.957 71.2907 208.805 71.8245 208.822 72.0568C208.956 74.4596 208.946 76.868 208.791 79.2687C208.626 81.8098 208.098 84.3136 207.226 86.7051C207.002 87.3791 207.22 88.1207 207.771 88.5676C208.207 88.7962 208.746 88.629 208.975 88.1934C209.022 88.1037 209.054 88.0075 209.069 87.9071Z" fill="#299147"/>
<path d="M208.278 87.2195C205.138 84.8289 202.029 83.7219 197.622 82.3873C195.893 81.8771 194.127 81.5063 192.339 81.2765C190.232 80.9611 188.089 80.9631 185.982 81.282C185.901 81.3171 185.468 81.5892 185.615 81.5974C187.689 81.7506 189.752 82.0188 191.796 82.4008C193.649 82.7327 195.469 83.2258 197.236 83.8745C200.817 85.0751 204.252 86.6718 207.477 88.6353C208.233 89.0505 208.804 87.6025 208.278 87.2195Z" fill="#299147"/>
<path d="M210.526 102.103C209.263 97.6937 205.586 94.3964 201.066 93.6192C194.997 92.3827 188.554 94.0094 188.195 94.6455C187.835 95.2815 191.508 100.775 198.381 103.089C202.366 104.644 206.845 104.28 210.526 102.103Z" fill="#90DEA9"/>
<path d="M220.405 108.209C217.845 105.219 215.025 103.482 210.99 101.265C209.419 100.404 207.783 99.6671 206.096 99.0621C204.101 98.3118 202.003 97.8688 199.875 97.7486C199.804 97.7801 199.308 97.935 199.44 97.9374C201.432 98.5205 203.39 99.2105 205.307 100.005C207.069 100.719 208.764 101.588 210.371 102.602C213.631 104.516 216.665 106.791 219.415 109.383C219.976 109.955 220.859 108.756 220.405 108.209Z" fill="#299147"/>
<path d="M227.885 35.9373C227.885 35.9373 227.855 36.3569 227.853 37.1447C227.853 37.5385 227.861 38.0246 227.879 38.5961C227.896 39.1674 227.915 39.8244 227.936 40.56C227.947 40.9278 227.958 41.3154 227.97 41.7218C227.983 42.1282 227.997 42.5535 228.012 42.997C228.042 43.8838 228.075 44.8429 228.11 45.8676C228.183 47.9172 228.265 50.2296 228.355 52.7521C228.378 53.3828 228.395 54.0264 228.415 54.6826C228.434 55.3385 228.457 56.0069 228.473 56.6867C228.51 58.0463 228.539 59.4518 228.567 60.8966C228.618 63.7861 228.651 66.8329 228.661 69.9844C228.668 73.1358 228.652 76.3918 228.632 79.7002C228.61 83.0086 228.603 86.37 228.608 89.7313C228.612 93.0928 228.601 96.4539 228.579 99.7622C228.572 101.417 228.562 103.058 228.561 104.679C228.561 106.301 228.57 107.903 228.586 109.479C228.606 111.055 228.632 112.604 228.668 114.122C228.684 114.88 228.708 115.631 228.727 116.372C228.742 117.113 228.789 117.846 228.867 118.57C228.944 119.293 229.055 120.007 229.168 120.711C229.28 121.415 229.391 122.108 229.474 122.789C229.558 123.469 229.61 124.138 229.635 124.795C229.646 125.122 229.65 125.447 229.651 125.769C229.653 126.091 229.655 126.409 229.657 126.724C229.669 129.245 229.637 131.556 229.581 133.603C229.525 135.651 229.444 137.435 229.357 138.904C229.271 140.373 229.178 141.527 229.107 142.313C229.071 142.707 229.041 143.008 229.019 143.211C228.997 143.414 228.985 143.519 228.985 143.519L224.567 143.442C224.567 143.442 224.557 143.337 224.538 143.133C224.52 142.93 224.495 142.627 224.465 142.232C224.408 141.444 224.336 140.287 224.275 138.815C224.214 137.344 224.164 135.557 224.144 133.509C224.124 131.46 224.132 129.149 224.188 126.629C224.195 126.314 224.203 125.996 224.21 125.674C224.217 125.353 224.227 125.028 224.244 124.701C224.28 124.046 224.344 123.379 224.439 122.701C224.535 122.023 224.658 121.334 224.782 120.635C224.907 119.935 225.03 119.225 225.12 118.504C225.211 117.784 225.27 117.053 225.299 116.312C225.331 115.572 225.368 114.822 225.396 114.065C225.46 112.549 225.512 111.001 225.559 109.426C225.604 107.851 225.64 106.25 225.669 104.629C225.697 103.008 225.715 101.367 225.736 99.7128C225.773 96.4046 225.82 93.0441 225.883 89.6837C225.946 86.3237 225.998 82.9632 226.034 79.655C226.072 76.3468 226.113 73.0912 226.175 69.941C226.24 66.7908 226.326 63.7462 226.428 60.8593C226.48 59.4159 226.534 58.012 226.595 56.6539C226.623 55.975 226.658 55.3076 226.688 54.6525C226.72 53.9972 226.748 53.3544 226.782 52.7247C226.915 50.206 227.038 47.8972 227.147 45.8509C227.199 44.8276 227.249 43.87 227.295 42.9844C227.317 42.5417 227.339 42.1171 227.359 41.7112C227.378 41.3052 227.396 40.9182 227.414 40.5509C227.448 39.8162 227.478 39.1602 227.504 38.5895C227.533 38.0188 227.549 37.5333 227.556 37.1395C227.568 36.352 227.544 35.9314 227.544 35.9314L227.885 35.9373Z" fill="#299147"/>
<path d="M250.367 162.023C250.367 166.106 248.813 170.193 245.698 173.311C242.577 176.428 238.49 177.983 234.411 177.983H219.382C215.303 177.983 211.217 176.428 208.095 173.311C204.981 170.193 203.426 166.106 203.426 162.023V137.608H250.367V162.023Z" fill="#DD9F57"/>
<mask id="mask1_59_1029" style="mask-type:luminance" maskUnits="userSpaceOnUse" x="230" y="137" width="21" height="41">
<path d="M230.653 137.608H250.368V177.984H230.653V137.608Z" fill="white"/>
</mask>
<g mask="url(#mask1_59_1029)">
<g opacity="0.300003">
<path d="M246.61 137.608V162.023C246.61 166.106 245.054 170.193 241.94 173.311C238.819 176.429 234.732 177.984 230.653 177.984H234.411C238.49 177.984 242.577 176.429 245.698 173.311C248.813 170.193 250.367 166.106 250.367 162.023V137.608H246.61Z" fill="#BF8245"/>
</g>
</g>
<path d="M253.825 137.608C253.825 139.019 252.68 140.163 251.269 140.163H202.524C201.113 140.163 199.969 139.019 199.969 137.608C199.969 136.196 201.113 135.052 202.524 135.052H251.269C252.68 135.052 253.825 136.196 253.825 137.608Z" fill="#BF8245"/>
<path fill-rule="evenodd" clip-rule="evenodd" d="M163.592 76.6305C164.885 77.842 164.951 79.8723 163.74 81.1653C158.16 87.1207 149.709 92.0724 139.995 96.2051C130.228 100.36 118.919 103.796 107.38 106.595C84.3051 112.193 60.0174 115.312 44.6637 116.474C42.8969 116.608 41.3562 115.284 41.2225 113.517C41.0888 111.75 42.4127 110.21 44.1795 110.076C59.2628 108.934 83.1972 105.859 105.868 100.36C117.202 97.6102 128.148 94.2721 137.483 90.3008C146.871 86.307 154.371 81.78 159.057 76.7782C160.269 75.4852 162.299 75.4191 163.592 76.6305Z" fill="black"/>
<path d="M16.4101 92.1642C16.4101 129.993 107.75 164.226 69.9213 164.226C32.0929 164.226 0 129.993 0 92.1642C0 54.3358 30.6659 29.3777 68.4943 29.3777C77.0561 22.9563 16.4101 54.3358 16.4101 92.1642Z" fill="#CC2A25"/>
<path d="M144.123 91.3257C144.123 129.154 114.884 163.387 77.0559 163.387C39.2275 163.387 7.13464 129.154 7.13464 91.3257C7.13464 53.4973 37.8006 28.5392 75.6289 28.5392C113.457 28.5392 144.123 53.4973 144.123 91.3257Z" fill="#FF362E"/>
<path d="M85.6179 87.0447C85.6179 93.3495 80.5069 98.4605 74.2022 98.4605C67.8975 98.4605 62.7865 93.3495 62.7865 87.0447C62.7865 80.74 67.8975 75.629 74.2022 75.629C80.5069 75.629 85.6179 80.74 85.6179 87.0447Z" fill="black"/>
<path d="M81.3366 83.4774C81.3366 85.4476 79.7394 87.0448 77.7692 87.0448C75.799 87.0448 74.2018 85.4476 74.2018 83.4774C74.2018 81.5072 75.799 79.91 77.7692 79.91C79.7394 79.91 81.3366 81.5072 81.3366 83.4774Z" fill="white"/>
<path d="M132.707 87.0447C132.707 93.3495 127.596 98.4605 121.292 98.4605C114.987 98.4605 109.876 93.3495 109.876 87.0447C109.876 80.74 114.987 75.629 121.292 75.629C127.596 75.629 132.707 80.74 132.707 87.0447Z" fill="black"/>
<path d="M128.427 83.4774C128.427 85.4476 126.829 87.0448 124.859 87.0448C122.889 87.0448 121.292 85.4476 121.292 83.4774C121.292 81.5072 122.889 79.91 124.859 79.91C126.829 79.91 128.427 81.5072 128.427 83.4774Z" fill="white"/>
<path d="M108.399 100.296C110.154 99.4977 112.278 100.28 112.576 102.185C112.724 103.136 112.766 104.104 112.698 105.071C112.548 107.206 111.866 109.269 110.716 111.073C109.565 112.878 107.982 114.366 106.11 115.403C104.238 116.44 102.137 116.992 99.997 117.01C97.8572 117.029 95.7467 116.512 93.8573 115.507C91.968 114.503 90.3596 113.042 89.1784 111.257C87.9972 109.473 87.2806 107.422 87.0936 105.29C87.0089 104.324 87.0342 103.356 87.1665 102.402C87.4317 100.492 89.542 99.6739 91.3109 100.442L91.8413 100.673C93.3172 101.314 93.9102 103.077 94.0508 104.68C94.136 105.653 94.463 106.588 95.0018 107.402C95.5407 108.216 96.2744 108.883 97.1364 109.341C97.9983 109.8 98.9611 110.035 99.9373 110.027C100.914 110.019 101.872 109.766 102.726 109.293C103.58 108.82 104.302 108.141 104.827 107.318C105.352 106.495 105.663 105.554 105.732 104.58C105.845 102.975 106.408 101.202 107.872 100.536L108.399 100.296Z" fill="black"/>
<path d="M95.0149 40.1304C95.0761 38.4743 96.4701 37.171 98.1185 37.3425C107.409 38.3091 116.196 42.1509 123.233 48.3695C130.269 54.5882 135.162 62.8363 137.263 71.9378C137.636 73.5525 136.514 75.0962 134.878 75.3605C133.242 75.6248 131.713 74.5088 131.324 72.898C129.455 65.1661 125.255 58.1658 119.259 52.8664C113.262 47.567 105.799 44.2595 97.8957 43.3551C96.2492 43.1666 94.9537 41.7864 95.0149 40.1304Z" fill="white"/>
<path fill-rule="evenodd" clip-rule="evenodd" d="M153.227 97.8542C154.52 99.0656 154.586 101.096 153.375 102.389C147.795 108.344 139.344 113.296 129.63 117.429C119.863 121.584 108.554 125.02 97.0154 127.819C73.94 133.417 49.6524 136.536 34.2986 137.698C32.5318 137.831 30.9912 136.508 30.8575 134.741C30.7238 132.974 32.0477 131.433 33.8145 131.3C48.8977 130.158 72.8322 127.083 95.5028 121.583C106.837 118.834 117.783 115.496 127.118 111.524C136.506 107.531 144.006 103.004 148.692 98.0018C149.904 96.7088 151.934 96.6427 153.227 97.8542Z" fill="black"/>
<path d="M71.3485 28.6344C72.062 17.6944 74.3451 -2.90146 77.7698 2.23561C81.1945 7.37268 84.429 21.9753 85.6181 28.6344C97.0338 23.6401 120.008 15.9345 120.579 25.067C121.15 34.1996 97.5095 34.5801 85.6181 33.6288C94.8934 38.861 112.017 50.1816 106.309 53.6063C99.1743 57.8872 83.4777 47.185 80.6237 39.3367C77.7698 45.9958 69.4934 58.8861 59.2193 57.1737C48.7368 55.4267 62.0211 40.3702 68.4218 36.059C58.8166 38.23 42.7511 38.4992 34.2474 26.494C48.517 17.3614 64.9271 24.1157 71.3485 28.6344Z" fill="#047A4F"/>
<path d="M74.202 27.2074C74.9154 16.2673 77.1986 -4.32852 80.6233 0.808547C84.048 5.94562 87.2825 20.5482 88.4716 27.2074C99.8873 22.213 122.861 14.5074 123.432 23.64C124.003 32.7725 100.363 33.1531 88.4716 32.2018C97.7469 37.434 114.87 48.7545 109.163 52.1793C102.028 56.4602 86.3312 45.7579 83.4772 37.9096C80.6233 44.5688 72.3469 57.459 62.0728 55.7467C51.5903 53.9996 64.8746 38.9431 71.2752 34.632C61.6701 36.8029 45.6045 37.0721 37.1009 25.0669C51.3705 15.9344 67.7806 22.6887 74.202 27.2074Z" fill="#02B25F"/>
<path fill-rule="evenodd" clip-rule="evenodd" d="M200.709 49.3126C201.498 54.1779 201.576 60.1586 201.178 66.8294L205.935 67.113C206.342 60.2887 206.283 53.912 205.413 48.5495C204.552 43.2434 202.841 38.5672 199.63 35.5443C196.268 32.3805 191.695 31.4126 186.095 32.6669C180.598 33.8981 173.907 37.2956 165.786 43.1068L168.517 47.0122L169.166 46.5688L169.158 46.557C176.783 41.168 182.67 38.3178 187.137 37.3174C191.617 36.3138 194.437 37.2015 196.363 39.0146C198.439 40.9687 199.91 44.3908 200.709 49.3126Z" fill="#3B82F6"/>
<path d="M204.818 66.8583C191.48 52.9247 180.081 44.7496 165.953 45.5299L176.457 61.5863L183.872 65.8674L204.818 66.8583Z" fill="#60A5FA"/>
<path d="M205.124 66.8488C181.646 60.4487 175.481 52.3283 166.411 44.4979L144.449 83.5642C153.011 93.2318 163.922 101.794 182.687 104.682L205.124 66.8488Z" fill="#60A5FA"/>
<path d="M185.191 75.266L217.262 76.3827L215.419 81.3185L179.786 89.7513C178.496 85.4193 177.834 80.8859 185.19 75.2658L185.191 75.266Z" fill="#1D4ED8"/>
<path d="M210.971 77.5905C210.348 78.6628 209.829 79.7835 209.445 80.8881C209.062 81.9928 208.821 83.0596 208.736 84.027C208.652 84.9945 208.725 85.8435 208.953 86.5252C209.18 87.2069 209.557 87.7079 210.062 87.9991C210.566 88.2904 211.188 88.3663 211.892 88.2224C212.597 88.0785 213.369 87.7177 214.164 87.1608C214.96 86.6038 215.763 85.8618 216.528 84.9773C217.293 84.0928 218.004 83.0834 218.621 82.0071C219.245 80.9349 219.763 79.8142 220.147 78.7095C220.53 77.6049 220.771 76.5381 220.856 75.5706C220.94 74.6032 220.867 73.7541 220.639 73.0724C220.412 72.3907 220.035 71.8898 219.531 71.5985C219.026 71.3072 218.404 71.2314 217.7 71.3752C216.996 71.5191 216.224 71.8799 215.428 72.4369C214.632 72.9938 213.829 73.7359 213.064 74.6204C212.299 75.5049 211.588 76.5143 210.971 77.5905Z" fill="#1E40AF"/>
<path d="M217.313 75.7757C217.143 76.0711 217.021 76.3785 216.975 76.6305C216.929 76.8824 216.963 77.0581 217.068 77.119C217.174 77.1799 217.343 77.121 217.538 76.9552C217.733 76.7894 217.938 76.5304 218.109 76.235C218.279 75.9396 218.401 75.6321 218.447 75.3802C218.493 75.1283 218.46 74.9525 218.354 74.8916C218.249 74.8307 218.08 74.8897 217.885 75.0555C217.689 75.2212 217.484 75.4803 217.313 75.7757Z" fill="#F5FFFA"/>
<path d="M214.896 76.2889C214.726 76.5843 214.604 76.8918 214.558 77.1437C214.512 77.3956 214.545 77.5714 214.651 77.6323C214.756 77.6932 214.925 77.6343 215.12 77.4685C215.316 77.3027 215.521 77.0436 215.692 76.7482C215.862 76.4529 215.984 76.1454 216.03 75.8935C216.076 75.6415 216.042 75.4658 215.937 75.4049C215.831 75.344 215.662 75.4029 215.467 75.5687C215.272 75.7345 215.067 75.9936 214.896 76.2889Z" fill="#F5FFFA"/>
<path d="M217.894 78.444C217.723 78.7393 217.602 79.0468 217.556 79.2987C217.51 79.5507 217.543 79.7264 217.649 79.7873C217.754 79.8482 217.923 79.7893 218.118 79.6235C218.313 79.4577 218.519 79.1986 218.689 78.9033C218.86 78.6079 218.982 78.3004 219.028 78.0485C219.074 77.7966 219.04 77.6208 218.935 77.5599C218.829 77.499 218.66 77.5579 218.465 77.7237C218.27 77.8895 218.064 78.1486 217.894 78.444Z" fill="#F5FFFA"/>
<path d="M215.757 82.5128C215.586 82.8081 215.465 83.1156 215.419 83.3675C215.373 83.6195 215.406 83.7952 215.512 83.8561C215.617 83.917 215.786 83.8581 215.981 83.6923C216.176 83.5265 216.382 83.2674 216.552 82.972C216.723 82.6767 216.845 82.3692 216.891 82.1173C216.937 81.8653 216.903 81.6896 216.798 81.6287C216.692 81.5678 216.523 81.6267 216.328 81.7925C216.133 81.9583 215.927 82.2174 215.757 82.5128Z" fill="#F5FFFA"/>
<path d="M215.176 79.8445C215.006 80.1399 214.884 80.4473 214.838 80.6993C214.792 80.9512 214.826 81.1269 214.931 81.1878C215.037 81.2487 215.206 81.1898 215.401 81.024C215.596 80.8582 215.801 80.5991 215.972 80.3038C216.142 80.0084 216.264 79.7009 216.31 79.449C216.356 79.1971 216.323 79.0213 216.217 78.9604C216.112 78.8995 215.943 78.9584 215.748 79.1242C215.552 79.29 215.347 79.5491 215.176 79.8445Z" fill="#F5FFFA"/>
<path d="M212.306 79.6722C212.136 79.9676 212.014 80.2751 211.968 80.527C211.922 80.7789 211.956 80.9547 212.061 81.0156C212.167 81.0765 212.336 81.0176 212.531 80.8518C212.726 80.686 212.931 80.4269 213.102 80.1315C213.272 79.8362 213.394 79.5287 213.44 79.2768C213.486 79.0248 213.453 78.8491 213.347 78.7882C213.242 78.7273 213.073 78.7862 212.878 78.952C212.682 79.1178 212.477 79.3769 212.306 79.6722Z" fill="#F5FFFA"/>
<path d="M212.494 83.3885C212.323 83.6839 212.202 83.9913 212.156 84.2433C212.11 84.4952 212.143 84.6709 212.249 84.7318C212.354 84.7927 212.523 84.7338 212.718 84.568C212.913 84.4022 213.119 84.1431 213.289 83.8478C213.46 83.5524 213.582 83.2449 213.628 82.993C213.674 82.7411 213.64 82.5653 213.535 82.5044C213.429 82.4435 213.26 82.5025 213.065 82.6682C212.87 82.834 212.664 83.0931 212.494 83.3885Z" fill="#F5FFFA"/>
<path opacity="0.7004" d="M176.304 55.3981C166.986 64.2214 160.115 76.9322 154.68 92.2829C151.265 90.1742 148.585 87.4808 147.443 83.3961C154.885 71.2768 161.85 59.0738 167.885 46.6028C169.973 49.5457 172.457 52.4826 176.304 55.3989L176.304 55.3981Z" fill="#1E40AF"/>
<path opacity="0.754" d="M182.931 49.9584C184.049 51.7835 176.641 43.8465 202.957 65.6114C192.887 62.4087 183.454 57.5395 178.514 54.4355C181.966 53.9055 182.991 53.022 182.933 49.9591L182.931 49.9584Z" fill="#1D4ED8"/>
</svg>
