<svg width="114" height="114" viewBox="0 0 114 114" fill="none" xmlns="http://www.w3.org/2000/svg">
<path fill-rule="evenodd" clip-rule="evenodd" d="M56.5108 6.25028C58.1995 13.7602 59.8373 20.7129 61.2291 24.5279C65.3873 24.3222 68.0859 23.1905 70.9033 22.1446C74.3741 20.8587 77.2849 19.1955 79.8222 17.2752C81.7571 15.9978 82.8433 16.5808 82.6905 19.8899C82.105 22.9676 80.5351 25.3252 78.142 27.0913C82.1729 26.9284 85.8813 27.3313 89.2418 28.3429C94.4523 29.9204 98.7888 32.9466 102.107 37.6103C103.142 39.0592 104.067 40.6623 104.89 42.4112C105.705 44.143 106.418 46.0462 107.02 48.1123L107.037 48.1551C109.32 56.7967 109.583 64.8468 108.09 72.091C106.528 79.7038 103.04 86.4079 97.9741 91.9375C94.5117 95.7182 90.3535 98.9845 85.4655 101.608C80.8406 104.094 75.5367 106.014 69.537 107.249C61.6109 108.878 54.4486 109.315 47.9737 108.723C41.4478 108.123 35.6094 106.486 30.3989 103.957C21.8873 99.8332 15.0729 92.3576 10.6177 83.5874C5.9927 74.4571 3.88814 63.8866 5.0762 54.2248C5.55991 50.2984 6.65462 46.5691 8.41125 43.1485C10.083 39.9079 12.3573 36.9416 15.2935 34.344C19.3244 30.1004 26.1982 27.5199 35.6857 26.474L28.7526 23.6278C27.5221 22.8219 28.0652 22.3418 30.0509 22.1361C38.9529 21.7931 46.7602 22.2132 52.6241 24.005C52.5308 18.9898 50.4347 13.9746 47.9992 8.95935L54.3807 4.75L56.5108 6.25028ZM17.6696 63.9723C17.4745 62.9779 18.1194 62.0091 19.1123 61.8119C20.0967 61.6148 21.0556 62.2663 21.2508 63.2693C22.3625 68.9704 24.0597 73.6255 26.2322 77.4148C28.3792 81.1612 31.0014 84.076 33.9885 86.365C34.7947 86.9737 34.9474 88.1311 34.3449 88.9455C33.7424 89.7599 32.5968 89.9143 31.7906 89.3056C28.4301 86.7337 25.4854 83.4588 23.0838 79.2666C20.6992 75.1172 18.8577 70.0935 17.6696 63.9723ZM75.1718 31.1549C80.5945 32.7666 84.549 36.1015 85.9323 42.4112C86.0341 45.5918 85.5928 46.852 84.269 45.026C77.3188 39.4535 70.7675 36.693 64.8442 38.2019C66.8384 43.0113 70.8014 46.7749 75.1124 50.3498C67.3561 50.4613 60.4738 46.9635 54.2025 40.9109C47.2015 44.383 37.0011 43.4314 33.1484 48.8496C30.8996 51.6358 30.4668 50.2212 31.0693 46.4234C32.7071 40.3708 35.4991 36.4616 39.5809 34.927C32.8768 35.1842 28.4471 34.2583 25.9182 32.3551C22.4898 33.5124 19.8336 35.0642 17.9921 37.0274C17.9497 37.0702 17.9073 37.1131 17.8563 37.156C15.2766 39.4278 13.2653 42.034 11.7887 44.906C10.2358 47.9151 9.27684 51.2071 8.85253 54.6792C7.75782 63.6037 9.70115 73.3769 14.0036 81.8385C18.1024 89.9057 24.3143 96.7641 32.0452 100.502C36.8568 102.834 42.2625 104.351 48.3301 104.908C54.4486 105.466 61.246 105.046 68.7987 103.494C74.4081 102.337 79.364 100.545 83.7004 98.2129C88.2235 95.7782 92.0508 92.7776 95.2161 89.3313C99.8156 84.3161 102.981 78.2292 104.398 71.3108C105.764 64.641 105.518 57.1825 103.388 49.1325C102.845 47.2893 102.2 45.5918 101.479 44.0315C100.749 42.4798 99.9429 41.0824 99.0518 39.8307C96.2429 35.8872 92.5769 33.3324 88.1726 32.0036C84.3793 30.872 80.0174 30.6233 75.1718 31.1549Z" stroke-miterlimit="2.6131"/>
</svg>
