<svg width="207" height="167" viewBox="0 0 207 167" fill="none" xmlns="http://www.w3.org/2000/svg">
<path d="M79 127L79 142L69 142L69 127L79 127Z" fill="#65747F"/>
<path fill-rule="evenodd" clip-rule="evenodd" d="M116.588 73.9367C117.728 73.1571 119.284 73.4488 120.063 74.5883C121.02 75.9872 122.909 78.2292 125.336 80.1947C127.786 82.1787 130.555 83.6951 133.292 84.0171C134.663 84.1784 135.644 85.4208 135.483 86.7921C135.322 88.1634 134.079 89.1442 132.708 88.9829C128.645 88.5049 124.997 86.3546 122.189 84.0803C119.358 81.7874 117.146 79.1795 115.937 77.4117C115.157 76.2722 115.449 74.7164 116.588 73.9367Z" fill="black"/>
<path fill-rule="evenodd" clip-rule="evenodd" d="M56.4987 155.08C56.4545 156.184 55.524 157.043 54.4203 156.998C51.329 156.875 49.3508 156.979 48.0854 157.252C46.8603 157.516 46.6235 157.864 46.5452 157.999C46.3847 158.278 46.2653 158.822 46.3042 160.144C46.3154 160.524 46.3424 161.002 46.373 161.542C46.4304 162.556 46.5002 163.789 46.5001 165L42.5001 165C42.5002 163.848 42.4454 162.922 42.392 162.023C42.3577 161.443 42.3239 160.874 42.3059 160.262C42.2667 158.928 42.3035 157.347 43.0804 156.001C43.9396 154.511 45.4215 153.734 47.2432 153.342C49.0246 152.958 51.4214 152.875 54.5802 153.002C55.6839 153.046 56.5428 153.976 56.4987 155.08Z" fill="black"/>
<path fill-rule="evenodd" clip-rule="evenodd" d="M77.8893 155.202C77.8451 156.306 76.9146 157.165 75.8109 157.12C72.7196 156.997 70.7414 157.101 69.476 157.374C68.2509 157.638 68.0141 157.986 67.9358 158.121C67.7753 158.4 67.6559 158.944 67.6948 160.266C67.706 160.646 67.733 161.124 67.7636 161.664C67.821 162.678 67.8909 163.911 67.8908 165.122L63.8908 165.122C63.8909 163.97 63.836 163.044 63.7827 162.145C63.7483 161.565 63.7145 160.996 63.6965 160.384C63.6573 159.05 63.6942 157.469 64.471 156.123C65.3302 154.633 66.8121 153.856 68.6338 153.464C70.4152 153.08 72.812 152.997 75.9708 153.124C77.0745 153.168 77.9334 154.098 77.8893 155.202Z" fill="black"/>
<path fill-rule="evenodd" clip-rule="evenodd" d="M90.0018 155.202C90.046 156.306 90.9765 157.165 92.0802 157.12C95.1715 156.997 97.1497 157.101 98.4151 157.374C99.6402 157.638 99.877 157.986 99.9553 158.121C100.116 158.4 100.235 158.944 100.196 160.266C100.185 160.646 100.158 161.124 100.128 161.664C100.07 162.678 100 163.911 100 165.122L104 165.122C104 163.97 104.055 163.044 104.108 162.145C104.143 161.565 104.177 160.996 104.195 160.384C104.234 159.05 104.197 157.469 103.42 156.123C102.561 154.633 101.079 153.856 99.2573 153.464C97.4759 153.08 95.0791 152.997 91.9203 153.124C90.8166 153.168 89.9577 154.098 90.0018 155.202Z" fill="black"/>
<path fill-rule="evenodd" clip-rule="evenodd" d="M70.0018 155.202C70.046 156.306 70.9765 157.165 72.0802 157.12C75.1715 156.997 77.1497 157.101 78.4151 157.374C79.6402 157.638 79.877 157.986 79.9553 158.121C80.1158 158.4 80.2352 158.944 80.1963 160.266C80.1851 160.646 80.1581 161.124 80.1275 161.664C80.0701 162.678 80.0003 163.911 80.0004 165.122L84.0004 165.122C84.0003 163.97 84.0551 163.044 84.1085 162.145C84.1428 161.565 84.1766 160.996 84.1946 160.384C84.2338 159.05 84.197 157.469 83.4201 156.123C82.5609 154.633 81.079 153.856 79.2573 153.464C77.4759 153.08 75.0791 152.997 71.9203 153.124C70.8166 153.168 69.9577 154.098 70.0018 155.202Z" fill="black"/>
<path d="M36 115.5C36 112.462 38.4624 110 41.5 110H109.5C112.538 110 115 112.462 115 115.5V115.5C115 118.538 112.538 121 109.5 121H41.5C38.4624 121 36 118.538 36 115.5V115.5Z" fill="black"/>
<path d="M77 117C78.6569 117 80 118.343 80 120L80 126C80 127.657 78.6569 129 77 129L71 129C69.3431 129 68 127.657 68 126L68 120C68 118.343 69.3431 117 71 117L77 117Z" fill="black"/>
<path d="M78 142L78 154L70 154L70 142L78 142Z" fill="black"/>
<path d="M99 157L50 157L50 153L99 153L99 157Z" fill="black"/>
<path d="M58 124C59.6569 124 61 125.343 61 127L61 134C61 135.657 59.6569 137 58 137L55 137C53.3431 137 52 135.657 52 134L52 127C52 125.343 53.3431 124 55 124L58 124Z" fill="black"/>
<path d="M58 121L58 125L55 125L55 121L58 121Z" fill="black"/>
<path d="M35.5 64.5876C35.5 91.0972 99.5097 115.088 73 115.088C46.4903 115.088 24 91.0972 24 64.5876C24 38.0779 45.4903 20.5876 72 20.5876C78 16.0875 35.5 38.0779 35.5 64.5876Z" fill="#CC2A25"/>
<path d="M125 64C125 90.5097 104.51 114.5 78 114.5C51.4903 114.5 29 90.5097 29 64C29 37.4903 50.4903 20 77 20C103.51 20 125 37.4903 125 64Z" fill="#FF362E"/>
<path d="M84 61C84 65.4183 80.4183 69 76 69C71.5817 69 68 65.4183 68 61C68 56.5817 71.5817 53 76 53C80.4183 53 84 56.5817 84 61Z" fill="black"/>
<path d="M81 58.5C81 59.8807 79.8807 61 78.5 61C77.1193 61 76 59.8807 76 58.5C76 57.1193 77.1193 56 78.5 56C79.8807 56 81 57.1193 81 58.5Z" fill="white"/>
<path d="M117 61C117 65.4183 113.418 69 109 69C104.582 69 101 65.4183 101 61C101 56.5817 104.582 53 109 53C113.418 53 117 56.5817 117 61Z" fill="black"/>
<path d="M114 58.5C114 59.8807 112.881 61 111.5 61C110.119 61 109 59.8807 109 58.5C109 57.1193 110.119 56 111.5 56C112.881 56 114 57.1193 114 58.5Z" fill="white"/>
<path d="M99.9647 70.2866C101.195 69.7269 102.683 70.275 102.892 71.6103C102.996 72.2765 103.026 72.9549 102.978 73.6327C102.872 75.1286 102.395 76.5745 101.588 77.8389C100.782 79.1033 99.6727 80.1463 98.3609 80.8729C97.0491 81.5995 95.5765 81.9869 94.0769 81.9997C92.5774 82.0125 91.0984 81.6504 89.7743 80.9463C88.4503 80.2422 87.3231 79.2184 86.4954 77.9679C85.6676 76.7175 85.1654 75.28 85.0344 73.7861C84.975 73.1092 84.9928 72.4304 85.0855 71.7625C85.2713 70.4238 86.7502 69.8504 87.9898 70.3889L88.3615 70.5504C89.3958 70.9997 89.8114 72.2353 89.9099 73.3586V73.3586C89.9696 74.0401 90.1987 74.6959 90.5764 75.2664C90.954 75.8368 91.4682 76.3039 92.0722 76.6251C92.6763 76.9463 93.351 77.1115 94.0351 77.1057C94.7192 77.0998 95.391 76.9231 95.9895 76.5916C96.5879 76.2601 97.0941 75.7844 97.4619 75.2075C97.8297 74.6307 98.0476 73.9711 98.0957 73.2887V73.2887C98.1749 72.1638 98.5694 70.9213 99.5958 70.4544L99.9647 70.2866Z" fill="black"/>
<path d="M90.5852 28.1229C90.6281 26.9623 91.605 26.049 92.7601 26.1692C99.271 26.8465 105.429 29.5389 110.36 33.8968C115.291 38.2547 118.72 44.0349 120.192 50.4131C120.454 51.5447 119.667 52.6265 118.521 52.8118V52.8118C117.374 52.997 116.303 52.2149 116.03 51.086C114.72 45.6676 111.777 40.7619 107.575 37.0481C103.373 33.3344 98.1423 31.0166 92.604 30.3827C91.4502 30.2506 90.5423 29.2834 90.5852 28.1229V28.1229Z" fill="white"/>
<path d="M74 20.0666C74.5 12.4 76.1 -2.03338 78.5 1.56662C80.9 5.16662 83.1667 15.4 84 20.0666C92 16.5666 108.1 11.1666 108.5 17.5666C108.9 23.9666 92.3333 24.2333 84 23.5666C90.5 27.2333 102.5 35.1666 98.5 37.5666C93.5 40.5666 82.5 33.0666 80.5 27.5666C78.5 32.2333 72.7 41.2666 65.5 40.0666C58.154 38.8423 67.4635 28.2909 71.949 25.2697C65.2178 26.7911 53.9593 26.9797 48 18.5666C58 12.1666 69.5 16.9 74 20.0666Z" fill="#047A4F"/>
<path d="M76 19.0666C76.5 11.4 78.1 -3.03338 80.5 0.56662C82.9 4.16662 85.1667 14.4 86 19.0666C94 15.5666 110.1 10.1666 110.5 16.5666C110.9 22.9666 94.3333 23.2333 86 22.5666C92.5 26.2333 104.5 34.1666 100.5 36.5666C95.5 39.5666 84.5 32.0666 82.5 26.5666C80.5 31.2333 74.7 40.2666 67.5 39.0666C60.154 37.8423 69.4635 27.2909 73.949 24.2697C67.2178 25.7911 55.9593 25.9797 50 17.5666C60 11.1666 71.5 15.9 76 19.0666Z" fill="#02B25F"/>
<path fill-rule="evenodd" clip-rule="evenodd" d="M5.5 164.5C4.11929 164.5 3 163.381 3 162L3 97L8 97L8 162C8 163.381 6.88071 164.5 5.5 164.5Z" fill="black"/>
<path fill-rule="evenodd" clip-rule="evenodd" d="M27 164.5C25.6193 164.5 24.5 163.381 24.5 162L24.5 97L29.5 97L29.5 162C29.5 163.381 28.3807 164.5 27 164.5Z" fill="black"/>
<path fill-rule="evenodd" clip-rule="evenodd" d="M179 164.5C177.619 164.5 176.5 163.381 176.5 162L176.5 97L181.5 97L181.5 162C181.5 163.381 180.381 164.5 179 164.5Z" fill="black"/>
<path fill-rule="evenodd" clip-rule="evenodd" d="M201 164.5C199.619 164.5 198.5 163.381 198.5 162L198.5 97L203.5 97L203.5 162C203.5 163.381 202.381 164.5 201 164.5Z" fill="black"/>
<path fill-rule="evenodd" clip-rule="evenodd" d="M207 102L0 102L0 94L207 94V102Z" fill="black"/>
<path d="M137 35C137 30.0294 141.029 26 146 26H193C197.971 26 202 30.0294 202 35V66C202 70.9706 197.971 75 193 75H146C141.029 75 137 70.9706 137 66V35Z" fill="#8A9696"/>
<path d="M137 67H202V67C202 71.4183 198.418 75 194 75H145C140.582 75 137 71.4183 137 67V67Z" fill="#5F6B76"/>
<path d="M145 26L145 73V73C140.582 73 137 69.4183 137 65L137 34C137 29.5817 140.582 26 145 26V26Z" fill="#5F6B76"/>
<path d="M176.5 59H166L172 96.5H181.5L176.5 59Z" fill="#8C9898"/>
<path fill-rule="evenodd" clip-rule="evenodd" d="M163.761 56.5H176C176.828 56.5 177.5 57.1716 177.5 58C177.5 58.8284 176.828 59.5 176 59.5H167.239L172.739 96.5H164.5C163.672 96.5 163 95.8284 163 95C163 94.1716 163.672 93.5 164.5 93.5H169.261L163.761 56.5Z" fill="#364A5B"/>
<path fill-rule="evenodd" clip-rule="evenodd" d="M76 91C76 89.3431 77.3431 88 79 88L151 88C152.657 88 154 89.3431 154 91C154 92.6569 152.657 94 151 94L79 94C77.3431 94 76 92.6569 76 91Z" fill="#5F6B76"/>
<path fill-rule="evenodd" clip-rule="evenodd" d="M39.5296 70.9782C40.6463 70.1661 42.2098 70.4129 43.0219 71.5296C45.0361 74.2991 47.7332 77.924 50.7882 80.574C53.9231 83.2933 56.7492 84.4049 59.2472 83.616C62.6017 82.5567 65.1055 81.0132 67.3939 79.6024C68.1139 79.1585 68.8126 78.7278 69.5097 78.3294C70.8218 77.5796 72.4614 76.75 74.2032 76.75C76.2666 76.75 77.8563 77.8638 79.0481 79.5663C79.8399 80.6975 79.5648 82.2563 78.4337 83.0481C77.3026 83.8399 75.7438 83.5648 74.952 82.4336C74.6511 82.0038 74.443 81.8455 74.3562 81.7928C74.2981 81.7575 74.2692 81.75 74.2032 81.75C73.9137 81.75 73.3034 81.9203 71.9904 82.6706C71.4968 82.9527 70.9375 83.2987 70.3142 83.6844C67.9866 85.1245 64.7679 87.1161 60.7529 88.3839C55.6509 89.9951 50.977 87.3567 47.5119 84.351C43.9669 81.2759 40.964 77.2009 38.9782 74.4704C38.1661 73.3538 38.413 71.7902 39.5296 70.9782Z" fill="black"/>
</svg>
