<svg width="131" height="178" viewBox="0 0 131 178" fill="none" xmlns="http://www.w3.org/2000/svg">
<path d="M31.0837 108.047C30.4337 108.277 29.7437 108.217 29.1637 107.937C28.5737 107.657 28.0937 107.157 27.8537 106.487L27.8437 106.457C27.6137 105.807 27.6737 105.117 27.9537 104.537C28.2337 103.947 28.7337 103.467 29.4037 103.227C30.6337 102.787 32.4837 103.037 34.6437 103.697C36.7337 104.337 39.1137 105.367 41.4837 106.517C43.6637 107.577 45.8737 108.757 47.7837 109.807C49.7137 110.867 51.2937 111.787 52.2737 112.357C54.8837 113.877 57.3737 114.807 59.7237 115.297C62.0737 115.787 64.3137 115.837 66.4237 115.597C68.5737 115.357 70.6337 114.827 72.5737 114.157C74.5337 113.487 76.3637 112.677 78.0437 111.907C78.7937 111.567 79.6537 111.107 80.5837 110.587C81.5637 110.037 82.5337 109.467 83.5237 108.877C86.0537 107.387 88.7237 105.807 91.2637 104.707C93.8537 103.577 96.3037 102.937 98.3637 103.357C98.3937 103.357 98.4237 103.367 98.4437 103.377C99.1137 103.527 99.6637 103.927 100.014 104.467C100.364 104.997 100.514 105.667 100.384 106.337C100.384 106.367 100.374 106.397 100.364 106.417C100.214 107.087 99.8137 107.637 99.2737 107.987C98.7337 108.347 98.0437 108.497 97.3637 108.347C95.2037 107.897 90.4237 110.717 86.1237 113.247C86.1037 113.257 86.0837 113.277 86.0637 113.287C84.9837 113.927 83.9337 114.547 82.9937 115.067C82.0037 115.627 81.0537 116.127 80.1637 116.527C78.2937 117.377 76.2637 118.267 74.0837 119.017C71.8837 119.767 69.5137 120.377 66.9637 120.647C64.3737 120.927 61.6337 120.877 58.7437 120.287C55.8637 119.697 52.8437 118.587 49.7037 116.747C48.7337 116.177 47.1637 115.267 45.3337 114.267C43.4937 113.257 41.3637 112.117 39.2537 111.087C37.3237 110.147 35.4537 109.287 33.9437 108.717C32.5237 108.177 31.4837 107.887 31.1237 108.017L31.0837 108.047ZM30.9337 107.557C29.8737 107.937 28.7037 107.387 28.3237 106.317C27.9437 105.257 28.4937 104.087 29.5637 103.707C31.7937 102.907 36.5437 104.687 41.2537 106.977C45.6137 109.107 50.0437 111.647 52.0037 112.797C57.3237 115.897 62.1537 116.577 66.4637 116.097C70.8637 115.617 74.8337 113.927 78.2437 112.367C79.7937 111.657 81.7237 110.517 83.7737 109.317C88.8037 106.357 94.4137 103.047 98.2937 103.857C99.3937 104.087 100.104 105.167 99.8737 106.267C99.6437 107.367 98.5637 108.077 97.4637 107.847C95.1137 107.357 90.2237 110.237 85.8337 112.827C83.7037 114.087 81.6737 115.277 79.9437 116.067C76.2437 117.757 71.9037 119.597 66.9037 120.147C61.8137 120.707 56.1437 119.927 49.9537 116.317C48.0337 115.197 43.6937 112.697 39.4737 110.637C35.5837 108.757 31.9137 107.207 30.9337 107.557ZM44.6637 2.33704C44.8837 1.12704 46.0537 0.317042 47.2637 0.537042C48.4737 0.757042 49.2837 1.92704 49.0637 3.13704L47.1937 13.157C47.1837 13.217 47.1737 13.277 47.1537 13.327C46.0237 18.377 44.6937 23.007 43.3837 27.597C40.9037 36.287 38.4537 44.827 37.7937 54.257C37.5837 57.267 37.5937 59.387 37.6037 61.027C37.6437 67.567 37.6437 67.887 29.0537 74.557C22.6937 79.497 18.2537 83.797 15.2737 87.847C12.3837 91.767 10.8537 95.457 10.2337 99.267C9.49374 103.827 10.4637 107.817 12.6237 110.887C14.9037 114.127 18.5337 116.377 22.9037 117.227C24.6137 117.557 26.3837 117.757 28.2037 117.847C30.0537 117.937 31.9837 117.917 33.9537 117.807C35.1837 117.747 36.2437 118.697 36.3037 119.927C36.3637 121.157 35.4137 122.217 34.1837 122.277C32.0837 122.387 30.0137 122.407 27.9937 122.317C25.9437 122.217 23.9537 121.997 22.0637 121.627C16.5437 120.557 11.9137 117.647 8.96374 113.467C6.15374 109.477 4.87374 104.347 5.81374 98.557C6.54374 94.047 8.32374 89.737 11.6637 85.207C14.9137 80.807 19.6237 76.207 26.3037 71.017C33.1637 65.687 33.1637 65.477 33.1337 61.047C33.1237 59.287 33.1137 57.007 33.3237 53.967C34.0237 44.037 36.5237 35.287 39.0737 26.377C40.4037 21.737 41.7437 17.047 42.7937 12.357L44.6637 2.33704ZM79.9337 3.14704C79.7137 1.93704 80.5137 0.767042 81.7337 0.547042C82.9437 0.327042 84.1137 1.12704 84.3337 2.34704L86.2037 12.367C87.2537 17.057 88.5937 21.747 89.9237 26.387C92.4737 35.287 94.9737 44.047 95.6737 53.977C95.8837 57.017 95.8737 59.297 95.8637 61.057C95.8337 65.487 95.8337 65.697 102.694 71.027C109.374 76.217 114.084 80.807 117.334 85.217C120.674 89.747 122.454 94.057 123.184 98.567C124.124 104.357 122.854 109.487 120.034 113.477C117.084 117.667 112.454 120.567 106.934 121.637C105.034 122.007 103.054 122.227 101.004 122.327C98.9837 122.427 96.9237 122.407 94.8137 122.287C93.5837 122.227 92.6337 121.177 92.6937 119.937C92.7537 118.707 93.8037 117.757 95.0437 117.817C97.0137 117.927 98.9337 117.947 100.794 117.857C102.614 117.767 104.384 117.567 106.094 117.237C110.464 116.387 114.084 114.137 116.374 110.897C118.534 107.827 119.504 103.837 118.764 99.277C118.144 95.467 116.614 91.777 113.724 87.857C110.744 83.807 106.304 79.507 99.9437 74.567C91.3537 67.897 91.3537 67.577 91.3937 61.037C91.4037 59.397 91.4137 57.287 91.2037 54.267C90.5437 44.837 88.1037 36.297 85.6137 27.607C84.3037 23.017 82.9737 18.387 81.8437 13.337C81.8337 13.277 81.8137 13.227 81.8037 13.167L79.9337 3.14704ZM44.1737 2.24704C44.3137 1.50704 44.7337 0.887042 45.3137 0.487042C45.8937 0.0870419 46.6237 -0.0929581 47.3637 0.0470419C48.1037 0.187042 48.7237 0.607042 49.1237 1.18704C49.5237 1.76704 49.7037 2.49704 49.5637 3.23704L47.6937 13.257C47.6837 13.327 47.6637 13.397 47.6437 13.467C46.5037 18.547 45.1837 23.167 43.8737 27.737V27.747C41.3937 36.407 38.9637 44.927 38.3037 54.297C38.1937 55.807 38.1437 57.077 38.1237 58.177C38.1037 59.287 38.1037 60.217 38.1137 61.027V61.067C38.1537 67.797 38.1337 68.147 29.3737 74.957C26.2037 77.417 23.5137 79.717 21.2537 81.897C18.9937 84.077 17.1637 86.147 15.6837 88.147C14.2637 90.077 13.1737 91.947 12.3637 93.797C11.5637 95.647 11.0337 97.477 10.7337 99.347C10.3837 101.507 10.4237 103.537 10.8137 105.397C11.2137 107.327 11.9837 109.077 13.0437 110.597C14.1437 112.167 15.5737 113.497 17.2637 114.527C18.9437 115.567 20.8837 116.317 23.0037 116.727C23.8437 116.887 24.7037 117.017 25.5737 117.127C26.4537 117.227 27.3437 117.297 28.2337 117.347C29.1537 117.387 30.0937 117.407 31.0337 117.397C31.9737 117.387 32.9437 117.357 33.9237 117.307H33.9337C34.6837 117.267 35.3837 117.547 35.9037 118.017C36.4237 118.487 36.7637 119.157 36.8037 119.917V119.927C36.8437 120.677 36.5637 121.377 36.1037 121.887C35.6337 122.407 34.9637 122.747 34.2037 122.787C33.1537 122.847 32.1037 122.877 31.0537 122.887C30.0037 122.897 28.9737 122.877 27.9637 122.827C26.9237 122.777 25.9037 122.697 24.9037 122.587C23.9037 122.467 22.9137 122.327 21.9537 122.137C19.1337 121.587 16.5437 120.577 14.2837 119.167C12.0037 117.747 10.0537 115.927 8.54374 113.767C7.06374 111.667 6.00374 109.267 5.44374 106.627C4.91374 104.107 4.84374 101.377 5.31374 98.487C5.68374 96.187 6.32374 93.947 7.29374 91.707C8.26374 89.467 9.56374 87.227 11.2537 84.927C12.8937 82.707 14.9037 80.437 17.3437 78.067C19.7837 75.697 22.6437 73.247 25.9937 70.647C32.6537 65.477 32.6537 65.267 32.6337 61.077V61.037C32.6237 60.167 32.6237 59.167 32.6437 58.007C32.6637 56.817 32.7137 55.477 32.8237 53.957C33.1737 48.967 33.9737 44.267 35.0137 39.707C36.0537 35.137 37.3137 30.717 38.5837 26.267V26.257C39.9137 21.617 41.2537 16.937 42.2937 12.287L44.1737 2.24704ZM79.4337 3.23704C79.2937 2.49704 79.4737 1.76704 79.8737 1.18704C80.2737 0.607042 80.8937 0.187042 81.6337 0.0470419C82.3737 -0.0929581 83.1037 0.0870419 83.6837 0.487042C84.2637 0.887042 84.6837 1.50704 84.8237 2.24704L86.6937 12.257C87.7337 16.907 89.0737 21.587 90.4037 26.227V26.237C92.9537 35.167 95.4637 43.937 96.1637 53.927C96.2737 55.437 96.3237 56.777 96.3437 57.977C96.3637 59.147 96.3637 60.167 96.3537 61.047V61.097C96.3237 65.237 96.3537 65.467 102.994 70.617C106.344 73.217 109.204 75.677 111.644 78.037C114.084 80.407 116.094 82.677 117.734 84.897C119.424 87.197 120.724 89.437 121.694 91.677C122.664 93.917 123.304 96.167 123.674 98.457C124.144 101.347 124.074 104.077 123.544 106.597C122.984 109.237 121.924 111.647 120.444 113.737C118.924 115.887 116.974 117.717 114.694 119.137C112.434 120.547 109.844 121.567 107.024 122.107C106.064 122.297 105.074 122.447 104.074 122.557C103.084 122.667 102.064 122.747 101.014 122.797C100.004 122.847 98.9737 122.867 97.9237 122.857C96.8737 122.847 95.8237 122.817 94.7737 122.757C94.0137 122.717 93.3437 122.377 92.8737 121.857L92.8437 121.827C92.3937 121.307 92.1337 120.617 92.1637 119.887C92.2037 119.127 92.5437 118.457 93.0637 117.987C93.5837 117.517 94.2837 117.247 95.0437 117.287C96.0337 117.337 96.9937 117.367 97.9337 117.377C98.8737 117.387 99.8137 117.367 100.734 117.327C101.624 117.287 102.514 117.217 103.394 117.107C104.264 117.007 105.124 116.877 105.964 116.707C108.084 116.297 110.024 115.547 111.704 114.507C113.384 113.467 114.814 112.137 115.924 110.577C116.994 109.057 117.754 107.317 118.154 105.377C118.534 103.517 118.584 101.497 118.234 99.327C117.934 97.467 117.404 95.627 116.604 93.777C115.794 91.927 114.714 90.057 113.284 88.127C111.804 86.127 109.974 84.057 107.714 81.877C105.454 79.697 102.764 77.397 99.5937 74.937C90.8137 68.117 90.8137 67.787 90.8537 61.007V60.957C90.8637 59.347 90.8737 57.257 90.6637 54.277C90.0037 44.907 87.5737 36.387 85.0937 27.727V27.717C83.7837 23.137 82.4637 18.517 81.3237 13.447L81.3037 13.347L81.2837 13.237L79.4337 3.23704Z"/>
<path d="M30.9337 107.557C29.8737 107.937 28.7037 107.387 28.3237 106.317C27.9437 105.247 28.4937 104.087 29.5637 103.707C31.7937 102.907 36.5437 104.687 41.2537 106.977C45.6137 109.107 50.0437 111.647 52.0037 112.797C57.3237 115.897 62.1537 116.577 66.4637 116.097C70.8637 115.617 74.8337 113.927 78.2437 112.367C79.7937 111.657 81.7237 110.517 83.7737 109.317C88.8037 106.357 94.4137 103.047 98.2937 103.857C99.3937 104.087 100.104 105.167 99.8737 106.267C99.6437 107.367 98.5637 108.077 97.4637 107.847C95.1137 107.357 90.2237 110.237 85.8337 112.827C83.7037 114.087 81.6737 115.277 79.9437 116.067C76.2337 117.757 71.9037 119.597 66.9037 120.147C61.8137 120.707 56.1437 119.927 49.9537 116.317C48.0337 115.197 43.6937 112.697 39.4737 110.637C35.5837 108.757 31.9137 107.207 30.9337 107.557ZM44.6637 2.33703C44.8837 1.12703 46.0537 0.317027 47.2637 0.537027C48.4737 0.757027 49.2837 1.92703 49.0637 3.13703L47.1937 13.157C47.1837 13.217 47.1737 13.277 47.1537 13.327C46.0237 18.377 44.6937 23.007 43.3837 27.597C40.9037 36.287 38.4537 44.827 37.7937 54.257C37.5837 57.267 37.5937 59.387 37.6037 61.027C37.6437 67.567 37.6437 67.887 29.0537 74.557C22.6937 79.497 18.2537 83.797 15.2737 87.847C12.3837 91.767 10.8537 95.457 10.2337 99.267C9.49372 103.827 10.4637 107.817 12.6337 110.887C14.9137 114.127 18.5437 116.377 22.9137 117.227C24.6237 117.557 26.3937 117.757 28.2137 117.847C30.0637 117.937 31.9937 117.917 33.9637 117.807C35.1937 117.747 36.2537 118.697 36.3137 119.927C36.3737 121.157 35.4237 122.217 34.1937 122.277C32.0937 122.387 30.0237 122.407 28.0037 122.317C25.9537 122.217 23.9637 121.997 22.0737 121.627C16.5537 120.557 11.9237 117.647 8.97372 113.467C6.16372 109.477 4.88372 104.347 5.82372 98.557C6.55372 94.047 8.33372 89.737 11.6737 85.207C14.9237 80.807 19.6337 76.207 26.3137 71.017C33.1737 65.687 33.1737 65.477 33.1437 61.047C33.1337 59.287 33.1237 57.007 33.3337 53.967C34.0337 44.037 36.5337 35.287 39.0837 26.377C40.4137 21.737 41.7537 17.047 42.8037 12.357L44.6637 2.33703ZM79.9337 3.14703C79.7137 1.93703 80.5137 0.767027 81.7337 0.547027C82.9437 0.327027 84.1137 1.12703 84.3337 2.34703L86.2037 12.367C87.2537 17.057 88.5937 21.747 89.9237 26.387C92.4737 35.287 94.9737 44.047 95.6737 53.977C95.8837 57.017 95.8737 59.297 95.8637 61.057C95.8337 65.487 95.8337 65.697 102.694 71.027C109.374 76.217 114.084 80.807 117.334 85.217C120.674 89.747 122.454 94.057 123.184 98.567C124.124 104.357 122.854 109.487 120.034 113.477C117.084 117.667 112.454 120.567 106.934 121.637C105.034 122.007 103.054 122.227 101.004 122.327C98.9837 122.427 96.9237 122.407 94.8237 122.287C93.5937 122.227 92.6437 121.177 92.7037 119.937C92.7637 118.707 93.8137 117.757 95.0537 117.817C97.0237 117.927 98.9437 117.947 100.804 117.857C102.624 117.767 104.394 117.567 106.104 117.237C110.474 116.387 114.094 114.137 116.384 110.897C118.544 107.827 119.514 103.837 118.774 99.277C118.154 95.467 116.624 91.777 113.734 87.857C110.754 83.807 106.314 79.507 99.9537 74.567C91.3637 67.897 91.3637 67.577 91.4037 61.037C91.4137 59.397 91.4237 57.287 91.2137 54.267C90.5537 44.837 88.1137 36.297 85.6237 27.607C84.3137 23.017 82.9837 18.387 81.8537 13.337C81.8437 13.277 81.8237 13.227 81.8137 13.167L79.9337 3.14703Z"/>
<path d="M2 174.5C1.17157 174.5 0.5 175.172 0.5 176C0.5 176.828 1.17157 177.5 2 177.5V174.5ZM35 176V177.5C35.8284 177.5 36.5 176.828 36.5 176H35ZM35 141L26.3397 156H43.6603L35 141ZM2 177.5H35V174.5H2V177.5ZM36.5 176V154.5H33.5V176H36.5Z"/>
<path d="M129 174.5C129.828 174.5 130.5 175.172 130.5 176C130.5 176.828 129.828 177.5 129 177.5V174.5ZM96 176V177.5C95.1716 177.5 94.5 176.828 94.5 176H96ZM96 141L104.66 156H87.3397L96 141ZM129 177.5H96V174.5H129V177.5ZM94.5 176V154.5H97.5V176H94.5Z"/>
</svg>
