<svg width="46" height="46" viewBox="0 0 46 46" fill="none" xmlns="http://www.w3.org/2000/svg">
<path d="M38 23C38 31.2843 31.2843 38 23 38C14.7157 38 8.00001 31.2843 8.00001 23C8.00001 14.7158 14.7157 8.00003 23 8.00003C31.2843 8.00003 38 14.7158 38 23ZM12.3407 23C12.3407 28.887 17.113 33.6593 23 33.6593C28.887 33.6593 33.6593 28.887 33.6593 23C33.6593 17.1131 28.887 12.3407 23 12.3407C17.113 12.3407 12.3407 17.1131 12.3407 23Z"/>
<path d="M18.1701 12.2009C18.2191 12.1596 18.2733 12.125 18.3313 12.0979L19.2386 11.6732C19.2917 11.6483 19.3477 11.6299 19.4053 11.6184L20.0046 11.4985L20.8451 11.2475C21.3039 11.1104 21.7653 11.4541 21.7653 11.933V27.5275C21.7653 27.9316 21.4377 28.2592 21.0335 28.2592H18.1067C17.7026 28.2592 17.375 27.9316 17.375 27.5275V13.2109C17.375 12.995 17.4703 12.7902 17.6354 12.6512L18.1701 12.2009Z"/>
<path d="M27.7841 33.6163C27.7352 33.6575 27.681 33.6921 27.623 33.7193L26.7157 34.144C26.6626 34.1689 26.6066 34.1873 26.549 34.1988L25.9497 34.3186L25.1092 34.5697C24.6504 34.7067 24.189 34.3631 24.189 33.8842V18.2897C24.189 17.8856 24.5166 17.558 24.9207 17.558H27.8476C28.2517 17.558 28.5793 17.8856 28.5793 18.2897L28.5793 32.6063C28.5793 32.8221 28.484 33.0269 28.3189 33.166L27.7841 33.6163Z"/>
<path d="M24.7974 44.9265C24.8425 45.4769 24.4328 45.962 23.8809 45.9832C18.9153 46.1736 14.011 44.7502 9.91026 41.9119C5.5349 38.8835 2.34495 34.4317 0.88394 29.315C-0.577073 24.1984 -0.218751 18.7334 1.89785 13.8513C4.01445 8.96922 7.75838 4.97207 12.4917 2.54091C17.225 0.109762 22.6549 -0.604963 27.8561 0.51852C33.0573 1.642 37.7081 4.53418 41.0159 8.70226C44.3238 12.8703 46.0841 18.0564 45.9969 23.3769C45.9152 28.3634 44.2154 33.1788 41.168 37.1041C40.8293 37.5403 40.1964 37.5908 39.7753 37.2335L37.632 35.4149C37.2108 35.0576 37.1616 34.4281 37.4952 33.9879C39.8251 30.9145 41.1232 27.1716 41.1867 23.2981C41.2557 19.0905 39.8635 14.9891 37.2476 11.6929C34.6316 8.39665 30.9537 6.10942 26.8404 5.22093C22.7271 4.33245 18.433 4.89768 14.6897 6.82031C10.9464 8.74294 7.98563 11.904 6.31175 15.7649C4.63787 19.6259 4.3545 23.9477 5.50992 27.9941C6.66533 32.0406 9.18804 35.5612 12.6482 37.9561C15.8336 40.1609 19.6321 41.2861 23.4875 41.1826C24.0396 41.1678 24.5226 41.5746 24.5677 42.125L24.7974 44.9265Z"/>
</svg>
